<?xml version="1.0" encoding="UTF-8"?>
<svg id="Layer_1" data-name="Layer 1" xmlns="http://www.w3.org/2000/svg" viewBox="0 0 512 321.09">
  <defs>
    <style>
      .cls-1 {
        fill: #991b1e;
      }

      .cls-2 {
        fill: #319966;
      }

      .cls-3 {
        fill: #2464b0;
      }
    </style>
  </defs>
  <path class="cls-1" d="m270.62,134.35L45,4.09C25-7.46,0,6.98,0,30.07v260.52c0,23.09,25,37.53,45,25.98l225.62-130.26c20-11.55,20-40.41,0-51.96Z"/>
  <path class="cls-3" d="m383.83,134.46L158,4.07c-20-11.55-45,2.89-45,25.98v260.76c0,23.09,25,37.53,45,25.98l225.83-130.38c20-11.55,20-40.41,0-51.96Z"/>
  <path class="cls-2" d="m497.04,134.56L271,4.06c-20-11.55-45,2.89-45,25.98v261.01c0,23.09,25,37.53,45,25.98l226.04-130.5c20-11.55,20-40.41,0-51.96Z"/>
</svg>